<?xml version="1.0" encoding="UTF-8"?>
<svg version="1.1" viewBox="0 0 900 900" width="1280" height="1280" xmlns="http://www.w3.org/2000/svg">
<path transform="translate(0)" d="m0 0h900v900h-900z" fill="#fff"/>
<path transform="translate(537,539)" d="m0 0 3 1 6 11 13 24 12 21 15 27 13 23 14 25 13 23 15 27 13 23 10 18 26 46 10 18 13 23 7 14 1 4v11l-3 8-7 8-12 6h-699v-35l10-19 13-24 16-29 14-26 13-23 10-19 10-18 14-26 10-18 14-26 13-23 15-28 13-23 11-21h3l11 10 11 9 28 24 17 14 13 9 11 5 13 4 7 1h21l19-5 16-8 9-7 4 2 14 9 8 4 14 4 6 1h22l19-5 16-8 16-12 11-10 11-9 13-11 10-9 13-10z"/>
<path transform="translate(347)" d="m0 0h232l9 5 5 5 5 8 1 3v14l-5 10-11 13-9 11-11 12-9 11v3l12 14 13 15 11 13 7 10 2 5v14l-4 9-5 6-10 5-4 1-192 1 1 77 14 26 12 21 15 27 12 21 15 27 14 24 11 20 10 18 16 28 5 9-1 4-13 11-14 12-13 11-8 7-16 13-14 12-10 5-8 1-11-2-8-6-5-4v-2l-4-2-8-8-5-6-3-2v-2l-4-2-6-7-4 1-35 35-8 5-7 2-12-1-8-4-10-8-10-9-14-11-11-10-10-8-14-12-10-8 1-4 13-23 14-26 13-23 17-32 13-23 16-30 10-18 13-24 12-22 1-18v-223l3-11 7-8z"/>
<path transform="translate(673,487)" d="m0 0 14 3 6 4 6 7 15 27 13 24 13 23 13 24 35 63 12 22 25 45 13 23 15 28 13 23 16 29 13 24 5 11v33h-127l4-16 1-14-2-16-6-18-13-24-12-21-15-27-12-21-14-25-15-27-12-21-28-50-9-16-14-25-7-12 1-6 10-19 8-16 9-17 5-10 7-7 9-4z"/>
<path transform="translate(899,878)" d="m0 0h1v22h-22l3-3 8-4 6-6z" fill="#fff"/>
<path transform="translate(0,878)" d="m0 0 2 3 5 8 7 6 8 4v1h-22z" fill="#fff"/>
</svg>
