<?xml version="1.0" encoding="UTF-8"?>
<svg version="1.1" viewBox="0 0 900 900" width="1280" height="1280" xmlns="http://www.w3.org/2000/svg">
<path transform="translate(0)" d="m0 0h900v900h-900z" fill="#fff"/>
<path transform="translate(328,152)" d="m0 0h15l16 3 15 6 13 8 10 9 7 8 8 14 4 11 3 26 2 33 3 7 5 2h39l7-2 3-4 2-31 2-24 3-12 9-17 8-10 8-8 15-10 15-6 13-2h22l14 3 16 7 12 9 5 4 9 11 8 13 5 15 2 11 1 13 5 5 19 13 19 14 17 14 11 9 16 15 19 19 9 11 10 11 14 19 11 16 13 21 12 23 27 54 7 19 6 25 2 12v40l-5 26-5 17-10 24-11 19-14 17-18 18-11 9-8 7-15 9-14 7-25 9-15 4-19 2-43-1-17-2-24-8-20-9-17-10-13-9-13-11-14-14-12-16-8-13-9-17-9-24-4-16-4-23-4-1h-70l-3 14-5 23-7 21-10 21-7 11-9 12-9 11-14 14-11 9-10 7-13 8-16 8-17 7-19 5-28 4h-21l-30-4-22-6-24-10-17-10-17-13-10-9-2-1v-2l-4-2-7-8-12-15-10-16-8-16-5-12-6-20-4-21-1-12v-24l1-13 5-24 8-23 16-33 18-37 10-17 18-27 12-16 11-14 15-16 9-10 13-13 8-7 12-11 14-11 10-8 18-13 16-11h2l2-5 2-20 4-14 7-13 9-12 11-10 11-7 13-6z"/>
<path transform="translate(218,419)" d="m0 0h12l20 2 19 5 15 6 15 8 12 9 12 11 7 7 10 13 10 17 6 15 4 13 3 14 1 9v24l-2 14-5 19-8 18-8 14-10 13-9 10-8 7-14 10-16 9-17 7-16 4-13 2h-31l-20-4-18-6-21-11-16-12-15-15-11-15-12-23-6-17-3-13-1-10v-32l4-20 6-17 10-19 8-11 12-14 10-9 13-10 23-12 15-5 12-3z" fill="#fff"/>
<path transform="translate(670,419)" d="m0 0h11l22 2 21 6 16 7 14 8 14 11 9 8 9 11 9 12 11 21 6 17 3 13 1 8v31l-2 13-4 15-6 16-8 15-10 14-11 12-12 11-17 11-19 9-15 5-20 4h-28l-21-3-16-5-19-9-16-10-14-12-8-8-10-13-10-17-8-20-5-20-1-7v-33l4-20 6-16 8-16 7-11 7-9 7-7 3-4h2l1-3 8-7 14-10 17-9 13-5 16-4z" fill="#fff"/>
<path transform="translate(687,455)" d="m0 0 20 1 14 4 19 9 14 10 13 12 6 6v2l-5-1-17-7-15-4-6-1h-28l-20 5-12 5-16 9-11 9-9 9-10 14-7 14-6 18-2 12v29l4 17 8 22-1 3-17-17-10-13-8-16-5-15-4-25 1-14 3-16 6-16 7-14 8-11 16-16 14-10 17-8 15-4 5-1z"/>
<path transform="translate(231,455)" d="m0 0h11l15 2 15 5 19 10 12 9 10 9 7 8v2l-6-2-13-6-19-5-7-1h-26l-21 5-16 7-16 10-12 11-8 9-8 13-5 10-5 15-3 14-1 18 2 17 6 21 5 12-1 4-17-17-11-15-8-16-3-10-3-12-1-8v-23l5-21 7-16 6-11 9-11 12-12 14-10 21-10 18-4z"/>
</svg>
